<mxfile host="app.diagrams.net" modified="2022-04-22T12:33:03.026Z" agent="5.0 (Windows NT 10.0; Win64; x64) AppleWebKit/537.36 (KHTML, like Gecko) Chrome/100.0.4896.88 Safari/537.36" etag="TlbMYVho51iL9BKtnWmN" version="17.4.5" type="github">
  <diagram id="C5RBs43oDa-KdzZeNtuy" name="Page-1">
    <mxGraphModel dx="1038" dy="617" grid="1" gridSize="10" guides="1" tooltips="1" connect="1" arrows="1" fold="1" page="1" pageScale="1" pageWidth="827" pageHeight="1169" math="0" shadow="0">
      <root>
        <mxCell id="WIyWlLk6GJQsqaUBKTNV-0" />
        <mxCell id="WIyWlLk6GJQsqaUBKTNV-1" parent="WIyWlLk6GJQsqaUBKTNV-0" />
        <mxCell id="FdeGdKbXNATSBEw28NBD-0" value="储存集群&lt;br&gt;安装完成" style="rounded=1;whiteSpace=wrap;html=1;" vertex="1" parent="WIyWlLk6GJQsqaUBKTNV-1">
          <mxGeometry x="190" y="230" width="120" height="60" as="geometry" />
        </mxCell>
        <mxCell id="FdeGdKbXNATSBEw28NBD-1" value="执行数据库初始化命令krypton-dbsync&lt;br&gt;初始化系统用户, &lt;br&gt;默认告警通知组,&lt;br&gt;默认告警规则条目,&lt;br&gt;默认告警通知模板" style="rounded=0;whiteSpace=wrap;html=1;" vertex="1" parent="WIyWlLk6GJQsqaUBKTNV-1">
          <mxGeometry x="147.5" y="320" width="215" height="90" as="geometry" />
        </mxCell>
        <mxCell id="FdeGdKbXNATSBEw28NBD-2" value="添加告警通知组，&lt;br&gt;组内添加联系人&lt;br&gt;和通知方式" style="rounded=0;whiteSpace=wrap;html=1;" vertex="1" parent="WIyWlLk6GJQsqaUBKTNV-1">
          <mxGeometry x="195" y="600" width="120" height="60" as="geometry" />
        </mxCell>
        <mxCell id="FdeGdKbXNATSBEw28NBD-3" value="用户管理&lt;br&gt;添加登录用户&lt;br&gt;（通知用户）" style="rounded=0;whiteSpace=wrap;html=1;" vertex="1" parent="WIyWlLk6GJQsqaUBKTNV-1">
          <mxGeometry x="90" y="450" width="120" height="60" as="geometry" />
        </mxCell>
        <mxCell id="FdeGdKbXNATSBEw28NBD-4" value="事件中心-告警通知&lt;br&gt;添加&lt;br&gt;通知方式" style="rounded=0;whiteSpace=wrap;html=1;" vertex="1" parent="WIyWlLk6GJQsqaUBKTNV-1">
          <mxGeometry x="300" y="450" width="120" height="60" as="geometry" />
        </mxCell>
        <mxCell id="FdeGdKbXNATSBEw28NBD-7" value="测试&lt;br&gt;通知方式&lt;br&gt;通过" style="ellipse;whiteSpace=wrap;html=1;" vertex="1" parent="WIyWlLk6GJQsqaUBKTNV-1">
          <mxGeometry x="325" y="535" width="70" height="50" as="geometry" />
        </mxCell>
        <mxCell id="FdeGdKbXNATSBEw28NBD-8" value="用户用默认告警规则&lt;br&gt;自定义&lt;br&gt;新的告警规则&lt;br&gt;自定义阈值和时长" style="rounded=0;whiteSpace=wrap;html=1;" vertex="1" parent="WIyWlLk6GJQsqaUBKTNV-1">
          <mxGeometry x="195" y="690" width="120" height="60" as="geometry" />
        </mxCell>
        <mxCell id="FdeGdKbXNATSBEw28NBD-9" value="主机/存储集群&lt;br&gt;触发告警" style="rounded=0;whiteSpace=wrap;html=1;" vertex="1" parent="WIyWlLk6GJQsqaUBKTNV-1">
          <mxGeometry x="197.5" y="790" width="120" height="60" as="geometry" />
        </mxCell>
        <mxCell id="FdeGdKbXNATSBEw28NBD-10" value="用户接收到&lt;br&gt;告警邮件/短信/消息" style="rounded=0;whiteSpace=wrap;html=1;" vertex="1" parent="WIyWlLk6GJQsqaUBKTNV-1">
          <mxGeometry x="397.5" y="790" width="120" height="60" as="geometry" />
        </mxCell>
        <mxCell id="FdeGdKbXNATSBEw28NBD-11" value="用户查看&lt;br&gt;当前告警" style="rounded=0;whiteSpace=wrap;html=1;" vertex="1" parent="WIyWlLk6GJQsqaUBKTNV-1">
          <mxGeometry x="617.5" y="790" width="120" height="60" as="geometry" />
        </mxCell>
        <mxCell id="FdeGdKbXNATSBEw28NBD-13" value="相关人员&lt;br&gt;进行事件处理&lt;br&gt;（重启/升级）" style="shape=hexagon;perimeter=hexagonPerimeter2;whiteSpace=wrap;html=1;fixedSize=1;" vertex="1" parent="WIyWlLk6GJQsqaUBKTNV-1">
          <mxGeometry x="617.5" y="640" width="120" height="80" as="geometry" />
        </mxCell>
        <mxCell id="FdeGdKbXNATSBEw28NBD-14" value="告警恢复" style="rounded=0;whiteSpace=wrap;html=1;" vertex="1" parent="WIyWlLk6GJQsqaUBKTNV-1">
          <mxGeometry x="617.5" y="535" width="120" height="60" as="geometry" />
        </mxCell>
        <mxCell id="FdeGdKbXNATSBEw28NBD-15" value="用户查看历史告警/&lt;br&gt;以发送记录" style="rounded=0;whiteSpace=wrap;html=1;" vertex="1" parent="WIyWlLk6GJQsqaUBKTNV-1">
          <mxGeometry x="617.5" y="420" width="120" height="60" as="geometry" />
        </mxCell>
        <mxCell id="FdeGdKbXNATSBEw28NBD-16" value="告警流程结束" style="rounded=1;whiteSpace=wrap;html=1;" vertex="1" parent="WIyWlLk6GJQsqaUBKTNV-1">
          <mxGeometry x="617.5" y="320" width="120" height="60" as="geometry" />
        </mxCell>
        <mxCell id="FdeGdKbXNATSBEw28NBD-18" value="&lt;span&gt;用户添加&lt;/span&gt;&lt;br&gt;&lt;span&gt;相应的&lt;/span&gt;&lt;br&gt;&lt;span&gt;静默设置&lt;/span&gt;" style="ellipse;shape=cloud;whiteSpace=wrap;html=1;" vertex="1" parent="WIyWlLk6GJQsqaUBKTNV-1">
          <mxGeometry x="417.5" y="610" width="120" height="80" as="geometry" />
        </mxCell>
        <mxCell id="FdeGdKbXNATSBEw28NBD-20" value="" style="endArrow=none;dashed=1;html=1;rounded=0;exitX=0.55;exitY=0.95;exitDx=0;exitDy=0;exitPerimeter=0;entryX=0.5;entryY=0;entryDx=0;entryDy=0;" edge="1" parent="WIyWlLk6GJQsqaUBKTNV-1" source="FdeGdKbXNATSBEw28NBD-18" target="FdeGdKbXNATSBEw28NBD-10">
          <mxGeometry width="50" height="50" relative="1" as="geometry">
            <mxPoint x="447.5" y="660" as="sourcePoint" />
            <mxPoint x="497.5" y="610" as="targetPoint" />
          </mxGeometry>
        </mxCell>
        <mxCell id="FdeGdKbXNATSBEw28NBD-21" value="" style="endArrow=none;dashed=1;html=1;rounded=0;entryX=0;entryY=0.5;entryDx=0;entryDy=0;exitX=0.875;exitY=0.5;exitDx=0;exitDy=0;exitPerimeter=0;" edge="1" parent="WIyWlLk6GJQsqaUBKTNV-1" source="FdeGdKbXNATSBEw28NBD-18" target="FdeGdKbXNATSBEw28NBD-13">
          <mxGeometry width="50" height="50" relative="1" as="geometry">
            <mxPoint x="447.5" y="660" as="sourcePoint" />
            <mxPoint x="497.5" y="610" as="targetPoint" />
          </mxGeometry>
        </mxCell>
        <mxCell id="FdeGdKbXNATSBEw28NBD-23" value="" style="endArrow=classic;html=1;rounded=0;exitX=0.5;exitY=1;exitDx=0;exitDy=0;entryX=0.476;entryY=-0.011;entryDx=0;entryDy=0;entryPerimeter=0;" edge="1" parent="WIyWlLk6GJQsqaUBKTNV-1" source="FdeGdKbXNATSBEw28NBD-0" target="FdeGdKbXNATSBEw28NBD-1">
          <mxGeometry width="50" height="50" relative="1" as="geometry">
            <mxPoint x="477.5" y="500" as="sourcePoint" />
            <mxPoint x="527.5" y="450" as="targetPoint" />
          </mxGeometry>
        </mxCell>
        <mxCell id="FdeGdKbXNATSBEw28NBD-24" value="" style="endArrow=classic;html=1;rounded=0;exitX=0.5;exitY=1;exitDx=0;exitDy=0;entryX=0.5;entryY=0;entryDx=0;entryDy=0;" edge="1" parent="WIyWlLk6GJQsqaUBKTNV-1" source="FdeGdKbXNATSBEw28NBD-1" target="FdeGdKbXNATSBEw28NBD-3">
          <mxGeometry width="50" height="50" relative="1" as="geometry">
            <mxPoint x="477.5" y="500" as="sourcePoint" />
            <mxPoint x="527.5" y="450" as="targetPoint" />
          </mxGeometry>
        </mxCell>
        <mxCell id="FdeGdKbXNATSBEw28NBD-25" value="" style="endArrow=classic;html=1;rounded=0;entryX=0.5;entryY=0;entryDx=0;entryDy=0;" edge="1" parent="WIyWlLk6GJQsqaUBKTNV-1" target="FdeGdKbXNATSBEw28NBD-4">
          <mxGeometry width="50" height="50" relative="1" as="geometry">
            <mxPoint x="257.5" y="410" as="sourcePoint" />
            <mxPoint x="527.5" y="450" as="targetPoint" />
          </mxGeometry>
        </mxCell>
        <mxCell id="FdeGdKbXNATSBEw28NBD-26" value="" style="endArrow=classic;html=1;rounded=0;exitX=0.5;exitY=1;exitDx=0;exitDy=0;entryX=0.5;entryY=0;entryDx=0;entryDy=0;" edge="1" parent="WIyWlLk6GJQsqaUBKTNV-1" source="FdeGdKbXNATSBEw28NBD-4" target="FdeGdKbXNATSBEw28NBD-7">
          <mxGeometry width="50" height="50" relative="1" as="geometry">
            <mxPoint x="477.5" y="590" as="sourcePoint" />
            <mxPoint x="527.5" y="540" as="targetPoint" />
          </mxGeometry>
        </mxCell>
        <mxCell id="FdeGdKbXNATSBEw28NBD-27" value="" style="endArrow=classic;html=1;rounded=0;exitX=0.5;exitY=1;exitDx=0;exitDy=0;" edge="1" parent="WIyWlLk6GJQsqaUBKTNV-1" source="FdeGdKbXNATSBEw28NBD-7">
          <mxGeometry width="50" height="50" relative="1" as="geometry">
            <mxPoint x="477.5" y="590" as="sourcePoint" />
            <mxPoint x="317.5" y="630" as="targetPoint" />
            <Array as="points">
              <mxPoint x="360.5" y="630" />
            </Array>
          </mxGeometry>
        </mxCell>
        <mxCell id="FdeGdKbXNATSBEw28NBD-28" value="" style="endArrow=classic;html=1;rounded=0;exitX=0.5;exitY=1;exitDx=0;exitDy=0;entryX=0;entryY=0.5;entryDx=0;entryDy=0;" edge="1" parent="WIyWlLk6GJQsqaUBKTNV-1" source="FdeGdKbXNATSBEw28NBD-3" target="FdeGdKbXNATSBEw28NBD-2">
          <mxGeometry width="50" height="50" relative="1" as="geometry">
            <mxPoint x="377.5" y="590" as="sourcePoint" />
            <mxPoint x="427.5" y="540" as="targetPoint" />
            <Array as="points">
              <mxPoint x="150.5" y="630" />
            </Array>
          </mxGeometry>
        </mxCell>
        <mxCell id="FdeGdKbXNATSBEw28NBD-29" value="" style="endArrow=classic;html=1;rounded=0;exitX=0.5;exitY=1;exitDx=0;exitDy=0;entryX=0.5;entryY=0;entryDx=0;entryDy=0;" edge="1" parent="WIyWlLk6GJQsqaUBKTNV-1" source="FdeGdKbXNATSBEw28NBD-2" target="FdeGdKbXNATSBEw28NBD-8">
          <mxGeometry width="50" height="50" relative="1" as="geometry">
            <mxPoint x="377.5" y="750" as="sourcePoint" />
            <mxPoint x="427.5" y="700" as="targetPoint" />
          </mxGeometry>
        </mxCell>
        <mxCell id="FdeGdKbXNATSBEw28NBD-30" value="" style="endArrow=classic;html=1;rounded=0;exitX=0.5;exitY=1;exitDx=0;exitDy=0;" edge="1" parent="WIyWlLk6GJQsqaUBKTNV-1" source="FdeGdKbXNATSBEw28NBD-8">
          <mxGeometry width="50" height="50" relative="1" as="geometry">
            <mxPoint x="377.5" y="750" as="sourcePoint" />
            <mxPoint x="255.5" y="790" as="targetPoint" />
          </mxGeometry>
        </mxCell>
        <mxCell id="FdeGdKbXNATSBEw28NBD-31" value="" style="endArrow=classic;html=1;rounded=0;exitX=1;exitY=0.5;exitDx=0;exitDy=0;entryX=0;entryY=0.5;entryDx=0;entryDy=0;" edge="1" parent="WIyWlLk6GJQsqaUBKTNV-1" source="FdeGdKbXNATSBEw28NBD-9" target="FdeGdKbXNATSBEw28NBD-10">
          <mxGeometry width="50" height="50" relative="1" as="geometry">
            <mxPoint x="377.5" y="750" as="sourcePoint" />
            <mxPoint x="427.5" y="700" as="targetPoint" />
          </mxGeometry>
        </mxCell>
        <mxCell id="FdeGdKbXNATSBEw28NBD-32" value="" style="endArrow=classic;html=1;rounded=0;exitX=1;exitY=0.5;exitDx=0;exitDy=0;entryX=0;entryY=0.5;entryDx=0;entryDy=0;" edge="1" parent="WIyWlLk6GJQsqaUBKTNV-1" source="FdeGdKbXNATSBEw28NBD-10" target="FdeGdKbXNATSBEw28NBD-11">
          <mxGeometry width="50" height="50" relative="1" as="geometry">
            <mxPoint x="497.5" y="750" as="sourcePoint" />
            <mxPoint x="547.5" y="700" as="targetPoint" />
          </mxGeometry>
        </mxCell>
        <mxCell id="FdeGdKbXNATSBEw28NBD-33" value="" style="endArrow=classic;html=1;rounded=0;entryX=0.5;entryY=1;entryDx=0;entryDy=0;exitX=0.5;exitY=0;exitDx=0;exitDy=0;" edge="1" parent="WIyWlLk6GJQsqaUBKTNV-1" source="FdeGdKbXNATSBEw28NBD-11" target="FdeGdKbXNATSBEw28NBD-13">
          <mxGeometry width="50" height="50" relative="1" as="geometry">
            <mxPoint x="497.5" y="750" as="sourcePoint" />
            <mxPoint x="547.5" y="700" as="targetPoint" />
          </mxGeometry>
        </mxCell>
        <mxCell id="FdeGdKbXNATSBEw28NBD-34" value="" style="endArrow=classic;html=1;rounded=0;entryX=0.5;entryY=1;entryDx=0;entryDy=0;exitX=0.5;exitY=0;exitDx=0;exitDy=0;" edge="1" parent="WIyWlLk6GJQsqaUBKTNV-1" source="FdeGdKbXNATSBEw28NBD-13" target="FdeGdKbXNATSBEw28NBD-14">
          <mxGeometry width="50" height="50" relative="1" as="geometry">
            <mxPoint x="497.5" y="670" as="sourcePoint" />
            <mxPoint x="547.5" y="620" as="targetPoint" />
          </mxGeometry>
        </mxCell>
        <mxCell id="FdeGdKbXNATSBEw28NBD-35" value="" style="endArrow=classic;html=1;rounded=0;entryX=0.5;entryY=1;entryDx=0;entryDy=0;exitX=0.5;exitY=0;exitDx=0;exitDy=0;" edge="1" parent="WIyWlLk6GJQsqaUBKTNV-1" source="FdeGdKbXNATSBEw28NBD-14" target="FdeGdKbXNATSBEw28NBD-15">
          <mxGeometry width="50" height="50" relative="1" as="geometry">
            <mxPoint x="497.5" y="590" as="sourcePoint" />
            <mxPoint x="547.5" y="540" as="targetPoint" />
          </mxGeometry>
        </mxCell>
        <mxCell id="FdeGdKbXNATSBEw28NBD-36" value="" style="endArrow=classic;html=1;rounded=0;entryX=0.5;entryY=1;entryDx=0;entryDy=0;exitX=0.5;exitY=0;exitDx=0;exitDy=0;" edge="1" parent="WIyWlLk6GJQsqaUBKTNV-1" source="FdeGdKbXNATSBEw28NBD-15" target="FdeGdKbXNATSBEw28NBD-16">
          <mxGeometry width="50" height="50" relative="1" as="geometry">
            <mxPoint x="497.5" y="420" as="sourcePoint" />
            <mxPoint x="547.5" y="370" as="targetPoint" />
          </mxGeometry>
        </mxCell>
        <mxCell id="FdeGdKbXNATSBEw28NBD-37" value="yrcloudfile-6.8.0存储集群事件告警用户使用流程" style="text;html=1;align=center;verticalAlign=middle;resizable=0;points=[];autosize=1;strokeColor=none;fillColor=none;fontSize=19;" vertex="1" parent="WIyWlLk6GJQsqaUBKTNV-1">
          <mxGeometry x="160" y="45" width="420" height="30" as="geometry" />
        </mxCell>
      </root>
    </mxGraphModel>
  </diagram>
</mxfile>
